<?xml version="1.0" encoding="UTF-8" standalone="no"?>
<!DOCTYPE svg PUBLIC "-//W3C//DTD SVG 1.1//EN" "http://www.w3.org/Graphics/SVG/1.1/DTD/svg11.dtd">
<svg width="100%" height="100%" viewBox="0 0 32 32" version="1.1" xmlns="http://www.w3.org/2000/svg" xmlns:xlink="http://www.w3.org/1999/xlink" xml:space="preserve" xmlns:serif="http://www.serif.com/" style="fill-rule:evenodd;clip-rule:evenodd;stroke-linejoin:round;stroke-miterlimit:2;">
    <g id="instagram32" transform="matrix(0.5,0,0,0.5,-288,-8)">
        <path d="M624,16C632.831,16 640,23.169 640,32L640,64C640,72.831 632.831,80 624,80L592,80C583.169,80 576,72.831 576,64L576,32C576,23.169 583.169,16 592,16L624,16ZM608,28C602.568,28 601.888,28.023 599.755,28.12C592.492,28.453 588.455,32.483 588.122,39.753C588.023,41.888 588,42.568 588,48C588,53.432 588.023,54.113 588.12,56.247C588.453,63.51 592.483,67.547 599.753,67.88C601.888,67.977 602.568,68 608,68C613.432,68 614.113,67.977 616.247,67.88C623.503,67.547 627.55,63.517 627.878,56.247C627.977,54.113 628,53.432 628,48C628,42.568 627.977,41.888 627.88,39.755C627.553,32.498 623.518,28.455 616.248,28.122C614.113,28.023 613.432,28 608,28ZM608,31.605C613.34,31.605 613.973,31.625 616.083,31.722C621.503,31.968 624.035,34.54 624.282,39.92C624.378,42.028 624.397,42.662 624.397,48.002C624.397,53.343 624.377,53.975 624.282,56.083C624.033,61.458 621.508,64.035 616.083,64.282C613.973,64.378 613.343,64.398 608,64.398C602.66,64.398 602.027,64.378 599.918,64.282C594.485,64.033 591.967,61.45 591.72,56.082C591.623,53.973 591.603,53.342 591.603,48C591.603,42.66 591.625,42.028 591.72,39.918C591.968,34.54 594.493,31.967 599.918,31.72C602.028,31.625 602.66,31.605 608,31.605ZM608,37.73C602.328,37.73 597.73,42.328 597.73,48C597.73,53.672 602.328,58.272 608,58.272C613.672,58.272 618.27,53.673 618.27,48C618.27,42.328 613.672,37.73 608,37.73ZM608,54.667C604.318,54.667 601.333,51.683 601.333,48C601.333,44.318 604.318,41.333 608,41.333C611.682,41.333 614.667,44.318 614.667,48C614.667,51.683 611.682,54.667 608,54.667ZM618.677,34.925C617.35,34.925 616.275,36 616.275,37.325C616.275,38.65 617.35,39.725 618.677,39.725C620.002,39.725 621.075,38.65 621.075,37.325C621.075,36 620.002,34.925 618.677,34.925Z" style="fill:rgb(0,249,255);fill-opacity:0.5;"/>
    </g>
</svg>
