<?xml version="1.0" encoding="UTF-8" standalone="no"?>
<!DOCTYPE svg PUBLIC "-//W3C//DTD SVG 1.1//EN" "http://www.w3.org/Graphics/SVG/1.1/DTD/svg11.dtd">
<svg width="100%" height="100%" viewBox="0 0 192 48" version="1.1" xmlns="http://www.w3.org/2000/svg" xmlns:xlink="http://www.w3.org/1999/xlink" xml:space="preserve" xmlns:serif="http://www.serif.com/" style="fill-rule:evenodd;clip-rule:evenodd;stroke-linejoin:round;stroke-miterlimit:2;">
    <g transform="matrix(1,0,0,1,-60,-268)">
        <g transform="matrix(1.72942,0,0,1.86661,-479.115,181.281)">
            <text x="348.972px" y="56.95px" style="font-family:'SegoeUI-Semibold', 'Segoe UI', sans-serif;font-weight:600;font-size:11.945px;fill:rgb(0,229,255);">CRE<tspan x="370.119px 377.293px 383.884px 387.366px 394.265px 399.882px " y="56.95px 56.95px 56.95px 56.95px 56.95px 56.95px ">ATIVco</tspan>de</text>
        </g>
        <g transform="matrix(0.860714,0,0,2.09362,48.9558,-44.8506)">
            <g transform="matrix(1,0,0,0.410256,-5.68434e-14,5.68434e-14)">
                <path d="M88.666,416.536L88.666,393.47L100.855,393.47L100.855,404.863L113.044,404.863L113.044,416.536L88.666,416.536Z" style="fill:white;"/>
            </g>
            <g transform="matrix(1.07948,0,0,0.478993,-273.378,137.861)">
                <text x="348.972px" y="56.95px" style="font-family:'SegoeUI-Semibold', 'Segoe UI', sans-serif;font-weight:600;font-size:12.289px;fill:white;">LE<tspan x="361.452px 369.703px " y="56.95px 56.95px ">AR</tspan>N</text>
            </g>
        </g>
        <g transform="matrix(1.6,0,0,1.60283,-36,-1237.13)">
            <rect x="60" y="939.046" width="120" height="29.947" style="fill:none;"/>
        </g>
        <g transform="matrix(0.860714,0,0,2.09362,38.0387,-45.3885)">
            <g transform="matrix(0.334792,0,0,0.137351,11.5289,82.3599)">
                <path d="M120.498,523.725C119.529,521.06 119,518.185 119,515.188C119,501.39 130.202,490.188 144,490.188C157.798,490.188 169,501.39 169,515.188C169,528.985 157.798,540.188 144,540.188C140.02,540.188 136.257,539.256 132.915,537.598L96.303,567.104C96.747,568.968 96.982,570.912 96.982,572.911C96.982,574.495 96.834,576.044 96.552,577.547L96.797,577.302L130.539,611.044C134.426,608.554 139.046,607.109 144,607.109C157.798,607.109 169,618.311 169,632.109C169,645.907 157.798,657.109 144,657.109C130.202,657.109 119,645.907 119,632.109C119,630.162 119.223,628.266 119.645,626.446L86.476,593.277C82.387,596.194 77.383,597.911 71.982,597.911C58.184,597.911 46.982,586.709 46.982,572.911C46.982,559.113 58.184,547.911 71.982,547.911C76.974,547.911 81.627,549.378 85.533,551.903L120.498,523.725Z" style="fill:rgb(0,229,255);"/>
            </g>
            <g transform="matrix(0.186455,0,0,0.0764944,47.6567,117.27)">
                <path d="M120.498,523.725C119.529,521.06 119,518.185 119,515.188C119,501.39 130.202,490.188 144,490.188C157.798,490.188 169,501.39 169,515.188C169,528.985 157.798,540.188 144,540.188C140.02,540.188 136.257,539.256 132.915,537.598L96.303,567.104C96.747,568.968 96.982,570.912 96.982,572.911C96.982,574.495 96.834,576.044 96.552,577.547L96.797,577.302L130.539,611.044C134.426,608.554 139.046,607.109 144,607.109C157.798,607.109 169,618.311 169,632.109C169,645.907 157.798,657.109 144,657.109C130.202,657.109 119,645.907 119,632.109C119,630.162 119.223,628.266 119.645,626.446L86.476,593.277C82.387,596.194 77.383,597.911 71.982,597.911C58.184,597.911 46.982,586.709 46.982,572.911C46.982,559.113 58.184,547.911 71.982,547.911C76.974,547.911 81.627,549.378 85.533,551.903L120.498,523.725Z" style="fill:white;"/>
            </g>
        </g>
    </g>
</svg>
