<?xml version="1.0" encoding="UTF-8" standalone="no"?>
<!DOCTYPE svg PUBLIC "-//W3C//DTD SVG 1.1//EN" "http://www.w3.org/Graphics/SVG/1.1/DTD/svg11.dtd">
<svg width="100%" height="100%" viewBox="0 0 76 32" version="1.1" xmlns="http://www.w3.org/2000/svg" xmlns:xlink="http://www.w3.org/1999/xlink" xml:space="preserve" xmlns:serif="http://www.serif.com/" style="fill-rule:evenodd;clip-rule:evenodd;stroke-linejoin:round;stroke-miterlimit:2;">
    <g transform="matrix(0.66086,0,0,0.677489,-258.85,-1086.7)">
        <g transform="matrix(0.459615,0,0,0.448334,55.7783,1217.94)">
            <path d="M791.314,912.105C791.314,906.666 790.222,902.582 788.29,900.011C785.74,896.53 781.741,895.105 777.709,895.105C773.146,895.105 769.673,896.53 767.127,900.011C765.164,902.582 764.112,906.711 764.112,912.15L764.104,930.246C764.104,935.653 765.04,939.389 767,941.936C769.548,945.407 773.678,947.244 777.709,947.244C781.741,947.244 785.942,945.407 788.492,941.936C790.424,939.389 791.314,935.653 791.314,930.246L791.314,912.105ZM825.075,946.37L815.501,946.37L815.501,940.828C811.872,944.987 808.795,947.088 805.44,947.088C802.498,947.088 800.454,945.701 799.431,943.193C798.81,941.667 798.369,939.286 798.369,935.788L798.369,895.477L807.942,895.477L807.942,936.796C808.166,938.209 808.767,938.727 809.984,938.727C811.816,938.727 813.475,937.134 815.501,934.276L815.501,895.477L825.075,895.477L825.075,946.37ZM753.522,918.655L753.522,946.37L743.444,946.37L743.444,918.655C743.444,918.655 733,884.678 730.847,878.345L741.429,878.345L748.499,904.888L755.538,878.345L766.12,878.345L753.522,918.655ZM781.741,931.253C782.243,936.293 780.68,938.792 777.707,938.792C774.735,938.792 773.174,936.293 773.678,931.253L773.678,911.098C773.174,906.058 774.735,903.696 777.709,903.696C780.682,903.696 782.248,906.058 781.745,911.098L781.741,931.253Z" style="fill:rgb(0,249,255);fill-opacity:0.5;fill-rule:nonzero;"/>
        </g>
        <g transform="matrix(0.459615,0,0,0.448334,55.7783,1217.94)">
            <path d="M981.807,883.841C981.807,883.841 980.337,873.519 975.826,868.973C970.104,863.008 963.69,862.976 960.75,862.628C939.693,861.112 908.109,861.112 908.109,861.112L908.043,861.112C908.043,861.112 876.459,861.112 855.404,862.628C852.462,862.976 846.05,863.008 840.326,868.973C835.815,873.519 834.347,883.841 834.347,883.841C834.347,883.841 832.842,895.962 832.842,908.083L832.842,919.448C832.842,931.569 834.347,943.689 834.347,943.689C834.347,943.689 835.815,954.011 840.326,958.557C846.05,964.524 853.57,964.335 856.917,964.959C868.956,966.11 908.076,966.465 908.076,966.465C908.076,966.465 939.693,966.419 960.75,964.904C963.69,964.554 970.104,964.524 975.826,958.557C980.337,954.011 981.807,943.689 981.807,943.689C981.807,943.689 983.31,931.569 983.31,919.448L983.31,908.083C983.31,895.962 981.807,883.841 981.807,883.841ZM902.171,946.37L892.598,946.37L892.598,940.828C888.967,944.987 885.892,947.088 882.537,947.088C879.595,947.088 877.55,945.701 876.528,943.193C875.905,941.667 875.464,939.286 875.464,935.788L875.464,895.981L885.039,895.981L885.039,936.796C885.262,938.209 885.862,938.727 887.08,938.727C888.913,938.727 890.571,937.134 892.598,934.276L892.598,895.981L902.171,895.981L902.171,946.37ZM970.719,922.687L970.717,912.386C970.717,907.005 969.657,903.067 967.749,900.521C965.193,897.076 961.561,895.251 956.984,895.251C952.326,895.251 948.694,897.076 946.056,900.521C944.118,903.067 942.987,907.227 942.987,912.61L942.987,930.246C942.987,935.596 944.23,939.342 946.168,941.861C948.806,945.302 952.438,947.019 957.21,947.019C961.976,947.019 965.721,945.218 968.243,941.561C969.353,939.947 970.069,938.117 970.377,936.095C970.459,935.181 970.701,933.101 970.701,930.162L970.701,928.734L961.126,928.734C961.126,932.394 961.145,934.57 961.059,935.067C960.538,937.506 959.229,938.727 956.984,938.727C953.851,938.727 952.528,936.385 952.561,931.736L952.561,922.687L970.719,922.687ZM928.428,895.172C925.071,895.172 921.736,897.237 918.789,900.863L918.799,878.848L909.729,878.848L909.729,946.37L918.799,946.37L918.812,941.296C921.861,945.068 925.185,947.019 928.428,947.019C932.06,947.019 934.715,945.075 935.933,941.331C936.541,939.195 936.94,935.91 936.94,931.253L936.94,911.098C936.94,906.328 936.329,903.067 935.719,901.042C934.502,897.271 932.06,895.172 928.428,895.172ZM865.89,946.37L855.813,946.37L855.813,888.422L845.232,888.422L845.232,878.859L876.977,878.848L876.977,888.422L865.89,888.422L865.89,946.37ZM927.366,931.756C927.366,936.796 926.177,938.727 923.548,938.727C922.046,938.727 920.315,937.954 918.789,936.429L918.799,905.869C920.325,904.363 922.046,903.571 923.548,903.571C926.177,903.571 927.366,905.05 927.366,910.09L927.366,931.756ZM952.561,909.566C952.561,904.855 953.851,903.571 956.899,903.571C959.923,903.571 961.126,904.972 961.126,909.628L961.126,915.128L952.561,915.138L952.561,909.566Z" style="fill:rgb(0,249,255);fill-opacity:0.5;"/>
        </g>
    </g>
</svg>
